<svg xmlns="http://www.w3.org/2000/svg" viewBox="0 0 18.15 18.15"><title>Ativo 3</title><g id="Camada_2" data-name="Camada 2"><g id="Camada_1-2" data-name="Camada 1"><path d="M11.27,5.07a.34.34,0,0,0-.32.08,39,39,0,0,0-3.1,3.22A1.41,1.41,0,1,0,10.3,9.78a38.07,38.07,0,0,0,1.23-4.29A.34.34,0,0,0,11.27,5.07ZM9.69,9.43a.72.72,0,0,1-1,.26.7.7,0,0,1-.26-1h0a26.91,26.91,0,0,1,2.08-2.19A24.65,24.65,0,0,1,9.69,9.43Z"/><path d="M9.08,3.43a.35.35,0,0,0,.35-.35V2.37a.36.36,0,0,0-.71,0v.71A.36.36,0,0,0,9.08,3.43Z"/><path d="M6.38,3.71,6,3.1a.35.35,0,1,0-.61.35l.35.61a.35.35,0,1,0,.61-.35Z"/><path d="M4.06,5.77h0l-.61-.35A.35.35,0,0,0,3,5.55.35.35,0,0,0,3.09,6l.62.35a.35.35,0,1,0,.35-.61Z"/><path d="M3.43,9.08a.35.35,0,0,0-.35-.35H2.37A.35.35,0,0,0,2,9.08a.35.35,0,0,0,.35.35h.71A.35.35,0,0,0,3.43,9.08Z"/><path d="M3.71,11.77h0l-.62.35a.35.35,0,0,0,.35.61h0l.61-.35a.35.35,0,1,0-.35-.61Z"/><path d="M6.25,14a.37.37,0,0,0-.48.13l-.35.61a.37.37,0,0,0,.12.49A.36.36,0,0,0,6,15.06H6l.35-.61A.36.36,0,0,0,6.25,14Z"/><path d="M9.08,14.72a.36.36,0,0,0-.36.35v.71a.36.36,0,0,0,.71,0v-.71A.35.35,0,0,0,9.08,14.72Z"/><path d="M12.38,14.1A.36.36,0,0,0,11.9,14a.35.35,0,0,0-.13.48h0l.35.61a.36.36,0,0,0,.49.12.34.34,0,0,0,.12-.47Z"/><path d="M15.06,12.12l-.61-.35a.37.37,0,0,0-.49.12.36.36,0,0,0,.13.49h0l.62.35a.35.35,0,0,0,.48-.13A.37.37,0,0,0,15.06,12.12Z"/><path d="M15.78,8.73h-.71a.34.34,0,0,0-.35.35.35.35,0,0,0,.35.35h.71a.35.35,0,0,0,.35-.35A.35.35,0,0,0,15.78,8.73Z"/><path d="M14.27,6.43a.31.31,0,0,0,.18,0L15.06,6a.35.35,0,0,0,.12-.48.34.34,0,0,0-.47-.13l-.62.35a.34.34,0,0,0-.12.48A.34.34,0,0,0,14.27,6.43Z"/><path d="M11.9,4.19a.35.35,0,0,0,.48-.13l.35-.61A.35.35,0,0,0,12.6,3a.35.35,0,0,0-.48.13l-.35.6A.36.36,0,0,0,11.9,4.19Z"/><path d="M9,8.59H9l-.18.31a.35.35,0,1,0,.61.35L9.56,9A.35.35,0,0,0,9,8.59Z"/><path d="M9.08,0a9.08,9.08,0,1,0,9.07,9.08A9.09,9.09,0,0,0,9.08,0Zm0,17.11a8,8,0,1,1,8-8A8.05,8.05,0,0,1,9.08,17.11Z"/></g></g></svg>