<svg xmlns="http://www.w3.org/2000/svg" viewBox="0 0 26.31 14.96"><defs><style>.cls-1{fill:#1d1d1b;}</style></defs><title>Ativo 2</title><g id="Camada_2" data-name="Camada 2"><g id="Camada_1-2" data-name="Camada 1"><path class="cls-1" d="M18.83,0a7.48,7.48,0,0,0-7.46,7.1H9.94L8.22,3.78a.36.36,0,0,0-.34-.2.39.39,0,0,0-.33.22L4.75,10l-1-2.61a.39.39,0,0,0-.35-.25H.37a.38.38,0,0,0,0,.75h2.8l1.2,3.22a.38.38,0,0,0,.34.25h0a.37.37,0,0,0,.34-.23L7.91,4.82,9.38,7.65a.35.35,0,0,0,.33.2h1.66A7.47,7.47,0,1,0,18.83,0Zm0,14.21a6.73,6.73,0,0,1-6.71-6.36H14a4.81,4.81,0,1,0,0-.75H12.12a6.73,6.73,0,1,1,6.71,7.11ZM16.72,7.85a2.14,2.14,0,1,0,0-.75H14.79a4.07,4.07,0,1,1,0,.75Z"/></g></g></svg>